<svg xmlns="http://www.w3.org/2000/svg" viewBox="0 0 318 390"><defs><style>.cls-7{fill:none;stroke:#ef4136;stroke-miterlimit:10;stroke-width:12.98px}</style></defs><g id="HQ"><path d="M274.48 370.3H42.87V117.92h171l34.25-30.64h47.17v262.26a20.76 20.76 0 01-20.81 20.76z" fill="#ffe800"/><path d="M295.24 64.73h-50.93l-37 33.08H38.92v-55.3a7.78 7.78 0 017.78-7.79h229a19.53 19.53 0 0119.53 19.53z" fill="#69d7f9"/><circle cx="109.5" cy="59.09" r="5.08" fill="#cc0d0d"/><circle cx="125.46" cy="59.09" r="5.08" fill="#ffde17"/><circle cx="141.43" cy="59.09" r="5.08" fill="#8dc63f"/><path fill="#ef4136" d="M42.87 182.48v29.19l26.6-14.6-26.6-14.59z"/><path class="cls-7" d="M22.76 233.86V40.46A20.76 20.76 0 0143.52 19.7h231a20.76 20.76 0 0120.76 20.76V204l-134.63-.29a54.61 54.61 0 0145.55-24.51v-39.57a94.23 94.23 0 00-94.2 94.23h94a94.23 94.23 0 01-94.23 94.23v-39.57A54.62 54.62 0 00157.39 264l-134.63-.28v85.6a20.75 20.75 0 0020.76 20.78h231a20.75 20.75 0 0020.76-20.76V233.86"/><path class="cls-7" d="M22.76 97.81h184.57l36.98-33.08h50.93"/><circle class="cls-7" cx="66.1" cy="59.09" r="17.88"/><path class="cls-7" d="M265.4 233.86V370.1M265.4 64.73v136.24"/></g></svg>